<svg id="visual" viewBox="0 0 900 600" width="900" height="600" xmlns="http://www.w3.org/2000/svg" xmlns:xlink="http://www.w3.org/1999/xlink" version="1.1"><path d="M536 0L647 0L647 46L260 46L260 92L150 92L150 138L297 138L297 185L494 185L494 231L172 231L172 277L629 277L629 323L141 323L141 369L262 369L262 415L186 415L186 462L600 462L600 508L544 508L544 554L444 554L444 600L0 600L0 554L0 554L0 508L0 508L0 462L0 462L0 415L0 415L0 369L0 369L0 323L0 323L0 277L0 277L0 231L0 231L0 185L0 185L0 138L0 138L0 92L0 92L0 46L0 46L0 0L0 0Z" fill="#fff000"></path><path d="M206 0L486 0L486 46L533 46L533 92L491 92L491 138L340 138L340 185L461 185L461 231L137 231L137 277L390 277L390 323L254 323L254 369L254 369L254 415L454 415L454 462L242 462L242 508L155 508L155 554L369 554L369 600L0 600L0 554L0 554L0 508L0 508L0 462L0 462L0 415L0 415L0 369L0 369L0 323L0 323L0 277L0 277L0 231L0 231L0 185L0 185L0 138L0 138L0 92L0 92L0 46L0 46L0 0L0 0Z" fill="#ffe400"></path><path d="M128 0L338 0L338 46L423 46L423 92L274 92L274 138L190 138L190 185L226 185L226 231L163 231L163 277L253 277L253 323L407 323L407 369L430 369L430 415L505 415L505 462L219 462L219 508L180 508L180 554L363 554L363 600L0 600L0 554L0 554L0 508L0 508L0 462L0 462L0 415L0 415L0 369L0 369L0 323L0 323L0 277L0 277L0 231L0 231L0 185L0 185L0 138L0 138L0 92L0 92L0 46L0 46L0 0L0 0Z" fill="#ffd700"></path><path d="M190 0L342 0L342 46L147 46L147 92L255 92L255 138L126 138L126 185L224 185L224 231L256 231L256 277L272 277L272 323L382 323L382 369L166 369L166 415L218 415L218 462L89 462L89 508L316 508L316 554L268 554L268 600L0 600L0 554L0 554L0 508L0 508L0 462L0 462L0 415L0 415L0 369L0 369L0 323L0 323L0 277L0 277L0 231L0 231L0 185L0 185L0 138L0 138L0 92L0 92L0 46L0 46L0 0L0 0Z" fill="#ffcb00"></path><path d="M68 0L249 0L249 46L197 46L197 92L287 92L287 138L196 138L196 185L180 185L180 231L248 231L248 277L152 277L152 323L343 323L343 369L147 369L147 415L321 415L321 462L278 462L278 508L62 508L62 554L342 554L342 600L0 600L0 554L0 554L0 508L0 508L0 462L0 462L0 415L0 415L0 369L0 369L0 323L0 323L0 277L0 277L0 231L0 231L0 185L0 185L0 138L0 138L0 92L0 92L0 46L0 46L0 0L0 0Z" fill="#ffbf00"></path><path d="M33 0L165 0L165 46L174 46L174 92L93 92L93 138L216 138L216 185L122 185L122 231L206 231L206 277L51 277L51 323L129 323L129 369L235 369L235 415L103 415L103 462L207 462L207 508L133 508L133 554L202 554L202 600L0 600L0 554L0 554L0 508L0 508L0 462L0 462L0 415L0 415L0 369L0 369L0 323L0 323L0 277L0 277L0 231L0 231L0 185L0 185L0 138L0 138L0 92L0 92L0 46L0 46L0 0L0 0Z" fill="#ffb202"></path><path d="M41 0L48 0L48 46L90 46L90 92L53 92L53 138L156 138L156 185L139 185L139 231L40 231L40 277L20 277L20 323L52 323L52 369L88 369L88 415L168 415L168 462L78 462L78 508L32 508L32 554L34 554L34 600L0 600L0 554L0 554L0 508L0 508L0 462L0 462L0 415L0 415L0 369L0 369L0 323L0 323L0 277L0 277L0 231L0 231L0 185L0 185L0 138L0 138L0 92L0 92L0 46L0 46L0 0L0 0Z" fill="#ffa60a"></path></svg>