<svg id="visual" viewBox="0 0 900 600" width="900" height="600" xmlns="http://www.w3.org/2000/svg" xmlns:xlink="http://www.w3.org/1999/xlink" version="1.1"><path d="M0 145L82 145L82 163L164 163L164 139L245 139L245 109L327 109L327 199L409 199L409 121L491 121L491 163L573 163L573 241L655 241L655 103L736 103L736 145L818 145L818 109L900 109L900 103L900 0L900 0L818 0L818 0L736 0L736 0L655 0L655 0L573 0L573 0L491 0L491 0L409 0L409 0L327 0L327 0L245 0L245 0L164 0L164 0L82 0L82 0L0 0Z" fill="#fad46f"></path><path d="M0 241L82 241L82 217L164 217L164 229L245 229L245 211L327 211L327 289L409 289L409 157L491 157L491 259L573 259L573 289L655 289L655 139L736 139L736 241L818 241L818 199L900 199L900 181L900 101L900 107L818 107L818 143L736 143L736 101L655 101L655 239L573 239L573 161L491 161L491 119L409 119L409 197L327 197L327 107L245 107L245 137L164 137L164 161L82 161L82 143L0 143Z" fill="#fac556"></path><path d="M0 361L82 361L82 277L164 277L164 349L245 349L245 247L327 247L327 367L409 367L409 259L491 259L491 307L573 307L573 361L655 361L655 259L736 259L736 349L818 349L818 247L900 247L900 283L900 179L900 197L818 197L818 239L736 239L736 137L655 137L655 287L573 287L573 257L491 257L491 155L409 155L409 287L327 287L327 209L245 209L245 227L164 227L164 215L82 215L82 239L0 239Z" fill="#fbb63e"></path><path d="M0 439L82 439L82 379L164 379L164 451L245 451L245 385L327 385L327 469L409 469L409 385L491 385L491 463L573 463L573 487L655 487L655 361L736 361L736 445L818 445L818 343L900 343L900 373L900 281L900 245L818 245L818 347L736 347L736 257L655 257L655 359L573 359L573 305L491 305L491 257L409 257L409 365L327 365L327 245L245 245L245 347L164 347L164 275L82 275L82 359L0 359Z" fill="#fda525"></path><path d="M0 601L82 601L82 601L164 601L164 601L245 601L245 601L327 601L327 601L409 601L409 601L491 601L491 601L573 601L573 601L655 601L655 601L736 601L736 601L818 601L818 601L900 601L900 601L900 371L900 341L818 341L818 443L736 443L736 359L655 359L655 485L573 485L573 461L491 461L491 383L409 383L409 467L327 467L327 383L245 383L245 449L164 449L164 377L82 377L82 437L0 437Z" fill="#ff9300"></path></svg>